<svg width="194" height="53" viewBox="0 0 194 53" fill="none" xmlns="http://www.w3.org/2000/svg">
<path d="M20.032 52.72C16.048 52.72 12.616 51.976 9.73602 50.488C6.85602 49 4.62402 46.888 3.04002 44.152C1.50402 41.416 0.736023 38.176 0.736023 34.432C0.736023 30.784 1.48002 27.592 2.96802 24.856C4.50402 22.12 6.59202 19.984 9.23202 18.448C11.92 16.864 14.968 16.072 18.376 16.072C23.368 16.072 27.304 17.656 30.184 20.824C33.112 23.992 34.576 28.312 34.576 33.784C34.576 35.56 33.424 36.448 31.12 36.448H9.37602C10.048 42.736 13.648 45.88 20.176 45.88C21.424 45.88 22.816 45.736 24.352 45.448C25.936 45.112 27.424 44.56 28.816 43.792C30.064 43.072 31.12 42.856 31.984 43.144C32.848 43.384 33.448 43.888 33.784 44.656C34.168 45.424 34.216 46.288 33.928 47.248C33.688 48.16 33.016 48.952 31.912 49.624C30.232 50.68 28.288 51.472 26.08 52C23.92 52.48 21.904 52.72 20.032 52.72ZM18.736 22.192C16.096 22.192 13.96 23.008 12.328 24.64C10.696 26.272 9.71202 28.48 9.37602 31.264H27.088C26.896 28.336 26.08 26.104 24.64 24.568C23.248 22.984 21.28 22.192 18.736 22.192Z" fill="#AEA4BF"/>
<path d="M53.7275 52.72C45.7115 52.72 41.7035 48.232 41.7035 39.256V5.2C41.7035 2.176 43.1915 0.664001 46.1675 0.664001C49.1915 0.664001 50.7035 2.176 50.7035 5.2V38.824C50.7035 43.144 52.5035 45.304 56.1035 45.304C56.4875 45.304 56.8475 45.304 57.1835 45.304C57.5195 45.256 57.8555 45.208 58.1915 45.16C58.8635 45.064 59.3195 45.256 59.5595 45.736C59.7995 46.168 59.9195 47.08 59.9195 48.472C59.9195 49.672 59.6795 50.608 59.1995 51.28C58.7195 51.952 57.9275 52.36 56.8235 52.504C55.8155 52.648 54.7835 52.72 53.7275 52.72Z" fill="#AEA4BF"/>
<path d="M76.7197 52.72C68.7037 52.72 64.6956 48.232 64.6956 39.256V5.2C64.6956 2.176 66.1836 0.664001 69.1596 0.664001C72.1836 0.664001 73.6956 2.176 73.6956 5.2V38.824C73.6956 43.144 75.4956 45.304 79.0956 45.304C79.4796 45.304 79.8397 45.304 80.1757 45.304C80.5117 45.256 80.8476 45.208 81.1836 45.16C81.8556 45.064 82.3117 45.256 82.5517 45.736C82.7917 46.168 82.9117 47.08 82.9117 48.472C82.9117 49.672 82.6716 50.608 82.1917 51.28C81.7116 51.952 80.9197 52.36 79.8157 52.504C78.8077 52.648 77.7757 52.72 76.7197 52.72Z" fill="#AEA4BF"/>
<path d="M103.392 52.72C99.7443 52.72 96.5763 51.976 93.8883 50.488C91.2003 49 89.1123 46.888 87.6243 44.152C86.1363 41.368 85.3923 38.104 85.3923 34.36C85.3923 30.616 86.1363 27.376 87.6243 24.64C89.1123 21.904 91.2003 19.792 93.8883 18.304C96.5763 16.816 99.7443 16.072 103.392 16.072C107.04 16.072 110.208 16.816 112.896 18.304C115.584 19.792 117.672 21.904 119.16 24.64C120.648 27.376 121.392 30.616 121.392 34.36C121.392 38.104 120.648 41.368 119.16 44.152C117.672 46.888 115.584 49 112.896 50.488C110.208 51.976 107.04 52.72 103.392 52.72ZM103.392 45.88C106.08 45.88 108.24 44.92 109.872 43C111.504 41.032 112.32 38.152 112.32 34.36C112.32 30.52 111.504 27.664 109.872 25.792C108.24 23.872 106.08 22.912 103.392 22.912C100.704 22.912 98.5443 23.872 96.9123 25.792C95.2803 27.664 94.4643 30.52 94.4643 34.36C94.4643 38.152 95.2803 41.032 96.9123 43C98.5443 44.92 100.704 45.88 103.392 45.88Z" fill="#AEA4BF"/>
<path d="M144.877 52.72C141.229 52.72 138.061 51.976 135.373 50.488C132.685 49 130.597 46.888 129.109 44.152C127.621 41.368 126.877 38.104 126.877 34.36C126.877 30.616 127.621 27.376 129.109 24.64C130.597 21.904 132.685 19.792 135.373 18.304C138.061 16.816 141.229 16.072 144.877 16.072C148.525 16.072 151.693 16.816 154.381 18.304C157.069 19.792 159.157 21.904 160.645 24.64C162.133 27.376 162.877 30.616 162.877 34.36C162.877 38.104 162.133 41.368 160.645 44.152C159.157 46.888 157.069 49 154.381 50.488C151.693 51.976 148.525 52.72 144.877 52.72ZM144.877 45.88C147.565 45.88 149.725 44.92 151.357 43C152.989 41.032 153.805 38.152 153.805 34.36C153.805 30.52 152.989 27.664 151.357 25.792C149.725 23.872 147.565 22.912 144.877 22.912C142.189 22.912 140.029 23.872 138.397 25.792C136.765 27.664 135.949 30.52 135.949 34.36C135.949 38.152 136.765 41.032 138.397 43C140.029 44.92 142.189 45.88 144.877 45.88Z" fill="#AEA4BF"/>
<path d="M186.081 52.72C176.769 52.72 172.113 48.112 172.113 38.896V23.56H168.369C165.969 23.56 164.769 22.432 164.769 20.176C164.769 17.92 165.969 16.792 168.369 16.792H172.113V10.24C172.113 7.21601 173.625 5.704 176.649 5.704C179.625 5.704 181.113 7.21601 181.113 10.24V16.792H188.745C191.145 16.792 192.345 17.92 192.345 20.176C192.345 22.432 191.145 23.56 188.745 23.56H181.113V38.392C181.113 40.696 181.617 42.424 182.625 43.576C183.633 44.728 185.265 45.304 187.521 45.304C188.337 45.304 189.057 45.232 189.681 45.088C190.305 44.944 190.857 44.848 191.337 44.8C191.913 44.752 192.393 44.944 192.777 45.376C193.161 45.76 193.353 46.576 193.353 47.824C193.353 48.784 193.185 49.648 192.849 50.416C192.561 51.136 192.009 51.64 191.193 51.928C190.569 52.12 189.753 52.288 188.745 52.432C187.737 52.624 186.849 52.72 186.081 52.72Z" fill="#AEA4BF"/>
</svg>
