<?xml version="1.0" encoding="utf-8"?>
<!-- Generator: Adobe Illustrator 22.1.0, SVG Export Plug-In . SVG Version: 6.00 Build 0)  -->
<svg version="1.1" id="Layer_1" xmlns="http://www.w3.org/2000/svg" xmlns:xlink="http://www.w3.org/1999/xlink" x="0px" y="0px"
	 viewBox="0 0 244.4 244.4" style="enable-background:new 0 0 244.4 244.4;" xml:space="preserve">
<style type="text/css">
	.st0{fill:none;stroke:#000000;stroke-width:8;stroke-miterlimit:10;}
	.st1{stroke:#000000;stroke-width:2;stroke-miterlimit:10;}
	.st2{stroke:#000000;stroke-width:4;stroke-miterlimit:10;}
	.st3{fill:none;stroke:#000000;stroke-width:8;stroke-linecap:round;stroke-miterlimit:10;}
</style>
<title>Asset 5</title>
<g id="Layer_2_1_">
	<g id="Layer_1-2">
		<path class="st0" d="M107.6,200.7H67.8c-2.6,0-4.6-2.1-4.6-4.6v-23.8c0-2.6,2.1-4.6,4.6-4.6h39.8c2.6,0,4.6,2.1,4.6,4.6V196
			C112.2,198.6,110.1,200.7,107.6,200.7z"/>
		<path class="st0" d="M136.8,167.6h39.8c2.6,0,4.6,2.1,4.6,4.6c0,0,0,0,0,0V196c0,2.6-2.1,4.6-4.6,4.6h-39.8
			c-2.5,0-4.6-2.1-4.6-4.6v-23.8C132.2,169.7,134.2,167.7,136.8,167.6C136.8,167.6,136.8,167.6,136.8,167.6z"/>
		<rect x="112.2" y="175.6" class="st1" width="20" height="4"/>
		<rect x="112.2" y="175.6" class="st2" width="20" height="4"/>
		<path class="st2" d="M182.6,175.2l20.2-5.8c1.1-0.3,2.2,0.3,2.5,1.4l0,0c0.3,1.1-0.3,2.2-1.4,2.5l-20.2,5.8
			c-1.1,0.3-2.2-0.3-2.5-1.4l0,0C180.9,176.6,181.5,175.5,182.6,175.2z"/>
		<path class="st2" d="M60.7,179l-20.2-5.8c-1.1-0.3-1.7-1.4-1.4-2.5l0,0c0.3-1.1,1.4-1.7,2.5-1.4l20.2,5.8c1.1,0.3,1.7,1.4,1.4,2.5
			l0,0C62.9,178.7,61.8,179.3,60.7,179z"/>
		<path class="st3" d="M28,167.6c-15-1.8-25.7-15.3-23.9-30.3c1.8-15,15.3-25.7,30.3-23.9c0.1,0,0.1,0,0.2,0"/>
		<path class="st3" d="M27.4,112.4c-7.3-15.6-0.6-34.2,15-41.6C54.9,65,69.8,68,79,78.3"/>
		<path class="st3" d="M75.9,75.3c3.5-20.6,23.1-34.5,43.7-31c16.3,2.8,28.9,15.7,31.2,32.1"/>
		<path class="st3" d="M148.4,67.6c8-11.5,23.9-14.4,35.4-6.3c9.2,6.4,13.1,18.2,9.6,28.9"/>
		<path class="st3" d="M195.3,75.1c16.8-0.9,31.2,11.9,32.2,28.8c0.7,12.2-6,23.7-17,29.1"/>
		<path class="st3" d="M224,119.9c12.9,4.8,19.5,19.2,14.7,32.2c-2.9,7.9-9.6,13.7-17.8,15.6"/>
	</g>
</g>
</svg>
