<svg width="252" height="170" viewBox="0 0 252 170" fill="none" xmlns="http://www.w3.org/2000/svg">
<path d="M28.8469 131.69C13.3805 129.834 2.34774 115.915 4.20372 100.448C6.05969 84.9818 19.9795 73.949 35.4459 75.805C35.5491 75.805 35.5491 75.805 35.6522 75.805" stroke="#8F6593" stroke-width="8" stroke-miterlimit="10" stroke-linecap="round"/>
<path d="M28.2283 74.7739C20.7013 58.6888 27.6096 39.5104 43.6947 31.8803C56.5834 25.8999 71.9468 28.9932 81.4329 39.6135" stroke="#8F6593" stroke-width="8" stroke-miterlimit="10" stroke-linecap="round"/>
<path d="M78.2365 36.5202C81.8453 15.2796 102.055 0.947378 123.295 4.55622C140.102 7.44329 153.094 20.7444 155.466 37.6544" stroke="#8F6593" stroke-width="8" stroke-miterlimit="10" stroke-linecap="round"/>
<path d="M152.991 28.5808C161.24 16.7232 177.634 13.733 189.492 22.0849C198.978 28.6839 202.999 40.8508 199.39 51.8836" stroke="#8F6593" stroke-width="8" stroke-miterlimit="10" stroke-linecap="round"/>
<path d="M201.349 36.314C218.672 35.386 233.52 48.584 234.551 66.0096C235.272 78.589 228.364 90.4466 217.022 96.0145" stroke="#8F6593" stroke-width="8" stroke-miterlimit="10" stroke-linecap="round"/>
<path d="M230.942 82.5071C244.243 87.4564 251.048 102.304 246.099 115.708C243.109 123.854 236.2 129.834 227.745 131.794" stroke="#8F6593" stroke-width="8" stroke-miterlimit="10" stroke-linecap="round"/>
<path d="M110.922 165.82H69.8846C67.2037 165.82 65.1415 163.654 65.1415 161.077V136.537C65.1415 133.856 67.3068 131.794 69.8846 131.794H110.922C113.603 131.794 115.665 133.959 115.665 136.537V160.974C115.665 163.654 113.5 165.82 110.922 165.82Z" stroke="#8F6593" stroke-width="8" stroke-miterlimit="10"/>
<path d="M141.03 131.69H182.068C184.749 131.69 186.811 133.856 186.811 136.433V160.974C186.811 163.654 184.646 165.717 182.068 165.717H141.03C138.453 165.717 136.287 163.551 136.287 160.974V136.433C136.287 133.856 138.349 131.794 141.03 131.69Z" stroke="#8F6593" stroke-width="8" stroke-miterlimit="10"/>
<path d="M118 141.879H134" stroke="#8F6593" stroke-width="8" stroke-miterlimit="10"/>
<path d="M62.9762 141.379L41.9762 135.379" stroke="#8F6593" stroke-width="8" stroke-miterlimit="10" stroke-linecap="round"/>
<path d="M188.976 141.379L209.976 135.379" stroke="#8F6593" stroke-width="8" stroke-miterlimit="10" stroke-linecap="round"/>
</svg>
